# Blender 4.0.1
# www.blender.org
mtllib table.mtl
o Platte
v 0.500000 -0.350000 0.481753
v 0.431818 -0.300000 0.006139
v 0.431818 0.250000 0.006139
v 0.431818 -0.250000 0.006139
v -0.386364 -0.300000 0.006139
v 0.431818 0.300000 0.006139
v 0.386364 -0.250000 0.006139
v -0.386364 0.250000 0.006139
v -0.386364 -0.250000 0.006139
v 0.386364 -0.300000 0.006139
v 0.386364 0.300000 0.006139
v -0.385949 -0.250000 0.371930
v -0.385949 -0.250000 0.420702
v 0.386364 0.250000 0.006139
v -0.431818 -0.250000 0.006139
v -0.386364 0.300000 0.006139
v 0.429155 -0.250000 0.371930
v -0.431818 -0.300000 0.006139
v -0.431818 0.300000 0.006139
v -0.385949 0.250000 0.371930
v 0.429155 -0.250000 0.420702
v 0.409091 -0.025000 0.371930
v -0.431818 0.250000 0.006139
v -0.385949 0.250000 0.420702
v 0.500000 -0.350000 0.506139
v -0.431404 0.250000 0.371930
v 0.429155 0.250000 0.371930
v -0.431404 0.250000 0.420702
v -0.431404 -0.250000 0.371930
v 0.429155 0.250000 0.420702
v 0.409091 -0.025000 0.420702
v -0.431404 -0.250000 0.420702
v 0.500000 0.350000 0.481753
v 0.383700 0.250000 0.371930
v 0.383700 0.250000 0.420702
v 0.409091 0.025000 0.371930
v 0.500000 0.350000 0.506139
v 0.383700 -0.250000 0.371930
v 0.383700 -0.250000 0.420702
v 0.409091 0.025000 0.420702
v -0.500000 0.350000 0.481753
v -0.409091 0.025000 0.371930
v -0.500000 0.350000 0.506139
v -0.409091 0.025000 0.420702
v -0.500000 -0.350000 0.481753
v -0.409091 -0.025000 0.371930
v -0.500000 -0.350000 0.506139
v -0.409091 -0.025000 0.420702
v 0.383700 0.025000 0.420702
v 0.408700 0.025000 0.420702
v 0.383700 0.025000 0.371930
v 0.383700 -0.025000 0.420702
v 0.383700 -0.025000 0.371930
v 0.408700 -0.025000 0.371930
v 0.408698 0.024976 0.420702
v 0.408698 -0.024976 0.371930
v -0.385949 0.025000 0.371930
v -0.385949 0.025000 0.420702
v -0.385949 -0.025000 0.371930
v -0.385949 -0.025000 0.420702
v -0.386364 0.300000 0.481753
v -0.431818 0.250000 0.481753
v -0.386364 0.250000 0.481753
v -0.431818 0.300000 0.481753
v -0.386364 0.250000 0.420702
v -0.386364 0.250000 0.371930
v -0.386364 -0.300000 0.481753
v -0.431818 -0.300000 0.481753
v -0.431818 -0.250000 0.481753
v -0.386364 -0.250000 0.481753
v -0.386364 -0.250000 0.420702
v -0.386364 -0.250000 0.371930
v 0.386364 0.250000 0.481753
v 0.431818 0.300000 0.481753
v 0.431818 0.250000 0.481753
v 0.386364 0.300000 0.481753
v 0.386364 0.250000 0.420702
v 0.386364 0.250000 0.371930
v 0.431818 -0.300000 0.481753
v 0.386364 -0.250000 0.481753
v 0.431818 -0.250000 0.481753
v 0.386364 -0.300000 0.481753
v 0.386364 -0.250000 0.420702
v 0.386364 -0.250000 0.371930
vn 1.0000 -0.0000 -0.0000
vn -1.0000 -0.0000 -0.0000
vn -0.0000 -0.0000 1.0000
vn -0.0000 -0.0000 -1.0000
vn -0.0000 0.0001 -1.0000
vn -0.0000 1.0000 -0.0000
vn -0.0000 -1.0000 -0.0000
s 0
usemtl Mat.006
f 33//1 37//1 25//1 1//1
f 45//2 47//2 43//2 41//2
f 37//3 43//3 47//3 25//3
f 1//4 45//4 68//4 67//4 70//4 63//4 61//4 64//4 41//4 33//4 74//4 76//4 73//4 80//4 82//4 79//4
f 80//4 73//4 75//4 1//4 79//4 81//4
f 74//4 33//4 1//4 75//4
f 69//4 68//4 45//4 62//4 63//4 70//4
f 62//4 45//4 41//4 64//4
f 52//3 49//3 58//3 60//3
f 48//3 60//3 58//3 44//3
f 55//3 50//3 49//3 52//3 31//3 40//3
f 50//3 55//3 40//3
f 57//4 51//4 53//4 59//4
f 46//4 42//4 57//4 59//4
f 22//5 54//5 56//5
f 56//4 54//4 53//4 51//4 36//4 22//4
f 66//1 8//1 16//1 61//1 63//1 65//1
f 61//6 16//6 19//6 64//6
f 19//2 23//2 62//2 64//2
f 28//7 65//7 63//7 62//7 23//7 8//7 66//7 26//7
f 19//4 16//4 8//4 23//4
f 71//1 70//1 67//1 5//1 9//1 72//1
f 69//6 70//6 71//6 32//6 29//6 72//6 9//6 15//6
f 15//2 18//2 68//2 69//2
f 68//7 18//7 5//7 67//7
f 15//4 9//4 5//4 18//4
f 75//1 3//1 6//1 74//1
f 74//6 6//6 11//6 76//6
f 77//2 73//2 76//2 11//2 14//2 78//2
f 75//7 73//7 77//7 30//7 27//7 78//7 14//7 3//7
f 11//4 6//4 3//4 14//4
f 79//1 2//1 4//1 81//1
f 17//6 21//6 83//6 80//6 81//6 4//6 7//6 84//6
f 7//2 10//2 82//2 80//2 83//2 84//2
f 82//7 10//7 2//7 79//7
f 7//4 4//4 2//4 10//4
usemtl Mat.007
f 41//6 43//6 37//6 33//6
f 1//7 25//7 47//7 45//7
f 58//6 49//6 51//6 57//6
f 59//7 53//7 52//7 60//7
f 27//1 30//1 21//1 17//1
f 78//6 34//6 35//6 77//6
f 49//2 35//2 34//2 51//2
f 38//2 39//2 52//2 53//2
f 83//7 39//7 38//7 84//7
f 21//3 30//3 77//3 35//3 49//3 50//3 40//3 31//3 52//3 39//3 83//3
f 84//4 38//4 53//4 54//4 22//4 36//4 51//4 34//4 78//4 27//4 17//4
f 60//1 13//1 12//1 59//1
f 20//1 24//1 58//1 57//1
f 65//6 24//6 20//6 66//6
f 29//2 32//2 28//2 26//2
f 12//7 13//7 71//7 72//7
f 71//3 13//3 60//3 48//3 44//3 58//3 24//3 65//3 28//3 32//3
f 66//4 20//4 57//4 42//4 46//4 59//4 12//4 72//4 29//4 26//4
